<svg xmlns="http://www.w3.org/2000/svg" viewBox="0 0 41.54 80" fill="currentColor"><path d="M22.2.94C18.69-2.44,9.64,4.44,4.46,4.07h0a6,6,0,0,1-2-.31,2.54,2.54,0,0,1,.16-.38c.06-.12.24-.44.24-.43h0l0,0h0a1.48,1.48,0,0,0-2.12.66h0l-.07.14a.54.54,0,0,0-.05.11A9.18,9.18,0,0,0,.11,8.75C.56,15.36,1.05,22,1.24,28.6c.48,3.69-1,8.14.56,11.53a.55.55,0,0,0,0,.38h0l.34.25s0,0,0,0h0a4,4,0,0,0,1.31.63c2,.39,4-.37,5.89-.72h0l5.29-1.2-.15,0a11.32,11.32,0,0,0,1.23-.19,1.66,1.66,0,0,0,0,1.14,88.78,88.78,0,0,1-3.32,13.34c-.4,2.57-4.34,8.26,0,8.92a55.27,55.27,0,0,0,13.63-3.68,6.65,6.65,0,0,0,.25,1.24l-.06-.24C27.78,66.56,28.42,75,34,79.25c1.28,1,1.52,1.4,2.17-1.28.62-4.5.47-8.17,1.16-11.25.56-6.2,1.18-12.4,2.35-18.51,2.68-13.83,4.8-17-10.15-9.36,3-16.42,14.12-28.52-10.8-16.39.07-.8.21-1.58.32-2.37l-.06.25c1-5.7,2.85-11.34,3.86-17a1.68,1.68,0,0,0,.1-1.1M28.35,58.1l.2-.09c2.09-1.45,4.39-4.76.13-4.48-5.08,1.78-10.13,4.06-15.5,4.92.42-.79,4.08-14.35,4.59-19.76,3.39-1.51,2.89-4.16-3.25-2.17-1.58.88-9.22,1.61-11.85,2.89,1.53-5,.16-10.8.34-15.95-.7-5.22-.22-10.87-1.15-16.07a6.4,6.4,0,0,0,3.73.36C7,8,15.89,7.39,20.37,5.31,18.91,10.44,17.72,18.06,17,19.82c0,2-2,5.61.41,6.72,4.69-.89,8.9-3.79,13.66-4.54-1.7,6.43-3.93,12.72-5.18,19.27-3.14,2.7.77,10,2.28,3.26C29.08,44,30,43.45,30.89,43h0L33,42h0c1.64-.72,3.29-1.44,5-2.08-.29,1.45-.59,2.9-.88,4.35l0-.14c0,.18-.08.35-.11.53,0-.08,0-.16,0-.25-.79,5.33-5.67,23.37-3,30.45"/><path d="M12.36,54c0-.07.05-.14.07-.21v0C12.41,53.88,12.38,54,12.36,54Z"/></svg>
