<svg xmlns="http://www.w3.org/2000/svg" viewBox="0 0 88 49.39" fill="currentColor"><path d="M39.46,49.24c-16.11-.68-29.46-14-22.24-30.32,3.4-7.61,9-14.84,17-17.8,6.68-2.88,14,.17,18.93,5,1.28,1.06,2.53,2.3,2.66,4.05C53.88,10.19,52.89,8,51.39,7a16.51,16.51,0,0,0-21.26-2l0,0A24.7,24.7,0,0,0,24.55,9.8h0c-5.61,6.57-10.43,16-6.5,24.54a.36.36,0,0,0,0-.09,18.47,18.47,0,0,0,1.16,2.2.35.35,0,0,1-.05-.08l.06.11v0A22.91,22.91,0,0,0,30.5,45h0A34.25,34.25,0,0,0,39,46.84l-.12,0c11.89,1,26.35-1.8,34.4-11.24,5.51-10.94-6-24.16-14.5-30.19l0,0-.06,0h0c-1.9-1.58-4.64-2.16-6-4.31,1.77-1.52,3.79.11,5.39,1.09A43.1,43.1,0,0,1,74,19.35c2.88,5.79,4,13.75-.48,19C65,47.2,51.39,50.1,39.46,49.24Z"/><path d="M49.54,21.8A4.55,4.55,0,0,0,47,24.09c-1.84-2.07-6.39-3.21-6.94.23,2.23.05,4.63-.1,6.26,1.74.44.32,1.11.52,1.44-.06l0,0s0-.08,0-.13.1-.12,0-.21a2,2,0,0,0,0-.24c0-1.72,2.58-2,3.8-2.68C53.94,21.51,50.66,21.06,49.54,21.8Z"/><path d="M66.28,28.14c-1.62.24-4.31,1.25-5,2.91a2.35,2.35,0,0,0-3.89-.28c1,1,2.46,1.09,3.75,1.49,0,.05,0,.09,0,.14s.08,0,.06,0h0a.09.09,0,0,1,0-.05l0,0h0l0-.11,0,0,0,0h0a10.24,10.24,0,0,1,6-2.46C69.62,29.61,67.72,27.8,66.28,28.14Z"/><path d="M86,16.76c-1.48.15-4,1-4.82,2.41-1-1.11-3.17-1.54-4.12-.18,1.15.88,2.81.89,3.93,1.78a2,2,0,0,0,.25.57c.1.12.23,0,.29-.1C82.18,19,85,19,86.83,18.5,89.12,18.05,87.6,16.62,86,16.76Z"/><path d="M10.23,25.06c-1.42-1.65-3.85.37-4.31,2.29C4,25.73.24,26.44,0,29.3c1.24,0,2.27-1,3.55-.78a6.13,6.13,0,0,0,2.41.1,1.31,1.31,0,0,0,.22.4v0h0a5.4,5.4,0,0,1,.3-.64l.18-.14h0a.16.16,0,0,0,0-.07A10.68,10.68,0,0,1,10.23,25.06Z"/></svg>
