<svg xmlns="http://www.w3.org/2000/svg" xmlns:xlink="http://www.w3.org/1999/xlink" fill="currentColor" viewBox="0 0 87.16 39.52"><defs><clipPath id="a" transform="translate(-0.08 -0.14)"><rect width="87.31" height="39.79" fill="none"/></clipPath></defs><g clip-path="url(#a)"><path d="M11.2,20.13c-1.21.92-7.7,3.13-6.33,4.68a.36.36,0,0,0,.35-.43l.17-.18,0,0a41.18,41.18,0,0,1,5.78-3.38C11.65,20.79,11.86,20,11.2,20.13ZM7.07,26.87C.65,31.64,13.33,23.63,15,23c4-2.37,9.26-3.28,13.17-5.15-1.52-.52-3.75,1-5.46,1.28h0L19.52,20.3h0l-.05,0h0L15.2,22.25h0q-2.29,1.21-4.58,2.44h0l-3.26,2h0ZM10,39.57c-3.54-.46-9-3.63-8.28-7.51.4-3.13-3.37-15.82-.55-16.36C10.85,9.24,22.21,5.62,32.91,1.11c1.81-.83,4.19-1.8,5.59.23.45.71,1.89,1.85.94,2.62-1.52.4-1.62-2.53-3.21-2.56h0A230.62,230.62,0,0,0,3.17,15.69c16.2-3.23,33-5.54,49.36-2l-.09,0c3.26.69,6.56,1.25,9.77,2.14,3.7-1.16,24.29-15,24.94-10.43.58,4.89-2.06,5.68-1.46.19a42.75,42.75,0,0,0-4.6,2l.08,0L81,7.67l.08,0-1.18.59.09,0-.23.11h0l-.06,0h0c-4.55,2.48-9.13,4.89-13.88,7l0,0-.06,0h0a32.76,32.76,0,0,0-3.7,2.11c-.65,5.91-1.42,12.09-1.84,18-.1,1.38-1.37,1.5-2.14,1.93-7.62,3.21-17.65,2.91-22.55-4.63-1.33-2.51-2.43-6.85-5.07-7S26.29,41,10,39.57Z" transform="translate(-0.08 -0.14)" fill="#010101"/></g></svg>
