<svg xmlns="http://www.w3.org/2000/svg" viewBox="0 0 59.83 54.82" fill="currentColor"><path d="M13.17,24.79c.16.65.06,1,.21,1.67A16.21,16.21,0,0,0,14,28.28c.19.48.39,1,.62,1.43s.51.91.74,1.37a19.63,19.63,0,0,0,5.83,6.46A18.78,18.78,0,0,0,23.69,39l.2.11.07,0a16.74,16.74,0,0,0,3.77,1.27,23.44,23.44,0,0,0,2.73.36c.13,0,.62,0,1.1,0s1-.09,1.11-.09A11.92,11.92,0,0,0,34,40.53l1.54-.32c.61-.16,1.23-.28,1.84-.41a22.67,22.67,0,0,0,2.17-.72,11.54,11.54,0,0,0,2-1.06h0l1.19-.71.17-.1a7.3,7.3,0,0,0,.81-.58,22.66,22.66,0,0,0,4.33-4,18,18,0,0,0,3.07-5.07,22.63,22.63,0,0,0,1.12-4.05A13.59,13.59,0,0,0,51.45,16c-.25-.54-.5-1-.76-1.46s-.62-1-1-1.68a16.26,16.26,0,0,0-1.65-2.12,18.48,18.48,0,0,0-2.41-2,24.65,24.65,0,0,0-7.38-3.59c-.35-.1-.69-.22-1-.33l-1-.29a9.42,9.42,0,0,0-1.65-.36,6.46,6.46,0,0,0-1.65-.1c-1.05,0-1.94.18-3.11.18a15.93,15.93,0,0,0-5.44,1.42,20.26,20.26,0,0,0-6.94,5.12,11.48,11.48,0,0,0-1.6,2.09,24.87,24.87,0,0,0-2.47,5.89,8,8,0,0,0-.06,2,2.66,2.66,0,0,0,.51,1.49c.25.16.59-.07.86.07s.73-.1,1.1-.49a2.91,2.91,0,0,0,.73-1.44,15.3,15.3,0,0,1,.26-1.65,9,9,0,0,1,.43-1.62c.1-.27.2-.55.31-.82l.39-.78c.24-.54.58-1,.85-1.53a10.66,10.66,0,0,1,1.53-2.33c.33-.36.68-.68,1-1a5.33,5.33,0,0,1,1.21-.91A22.64,22.64,0,0,1,26.6,7.61a16.85,16.85,0,0,1,5.1-.82,20.28,20.28,0,0,1,5.19.81A23.44,23.44,0,0,1,43,10.24a18.36,18.36,0,0,1,3.43,2.9,14.31,14.31,0,0,1,2.41,3.69,12,12,0,0,1,.41,8.55,14.81,14.81,0,0,1-2,4,14.3,14.3,0,0,1-3.86,4l-.25.18h0l0,0c-.38.29-.81.56-1.23.85s-.84.59-1.25.83a17.42,17.42,0,0,1-5.4,2.1,16.68,16.68,0,0,1-6.48.27,15.63,15.63,0,0,1-10-6.42A15.74,15.74,0,0,1,16.74,25a7.3,7.3,0,0,0-.45-1.58c-.22-.48-.17-.65-.32-.82a.92.92,0,0,0-.82-.26,2.34,2.34,0,0,0-1.42.72A1.91,1.91,0,0,0,13.17,24.79Z" transform="translate(-0.37)"/><path d="M44.11,1.49a25.08,25.08,0,0,1,9.28,4A18.13,18.13,0,0,1,57.13,9a13.57,13.57,0,0,1,2.47,4.6,14.61,14.61,0,0,1,.49,6A17.45,17.45,0,0,1,58.57,25l-.43.95-.58,1a18.55,18.55,0,0,1-2,2.78,8.89,8.89,0,0,1-.82.85l-.66.63-.77.65a22.08,22.08,0,0,1-2.52,1.81c-.31.19-.61.4-.91.62s-.61.39-.9.6a11,11,0,0,1-1.71,1.17,11.46,11.46,0,0,1-2.78.77c-.18,0-.46,0-.48-.13-.1-.5-.59-.93-.77-1.41s-.06-1,.86-1.68a13.42,13.42,0,0,1,1.58-.95c.59-.36,1.24-.66,1.81-1a21.91,21.91,0,0,0,6-4.67A14.85,14.85,0,0,0,57,20.54a11.63,11.63,0,0,0,0-5.25,12.58,12.58,0,0,0-2.38-4.8,17.63,17.63,0,0,0-9.38-6C44.49,4.24,43.72,4.14,43,4s-1.53-.24-2.29-.25A14.8,14.8,0,0,0,36.12,4c-1.22.26-2.59.76-3.77,1.13s-2.23.64-3,.15c-.12-.07.33-1,1-1.95a8.59,8.59,0,0,1,1.86-1.92A6.52,6.52,0,0,1,35.14.64,16.7,16.7,0,0,0,38.5.91c.6,0,1.23,0,1.85.08a16.1,16.1,0,0,1,1.85.16C42.84,1.25,43.48,1.33,44.11,1.49Z" transform="translate(-0.37)"/><path d="M34.33,16.83c-.23-.08-.28-.23-.51-.35a4.22,4.22,0,0,0-.69-.14A7,7,0,0,0,32,16.22,7.24,7.24,0,0,0,29,16.5a7,7,0,0,0-1,.36l-.07,0h0a4.9,4.9,0,0,0-1.18.77c-.22.16-.65.66-.7.68a3.54,3.54,0,0,0-.44.65,6.28,6.28,0,0,0-.42.92c-.11.18-.23.36-.34.55A3,3,0,0,0,24.33,22h0l-.05.49,0,.06a.69.69,0,0,0,0,.35,5.45,5.45,0,0,0,1.32,4,10.87,10.87,0,0,0,1.21,1c.19.13.4.26.6.37l.54.25a8.75,8.75,0,0,0,1.16.38,8.22,8.22,0,0,1,1.17.19,4.45,4.45,0,0,0,.9.14A5.49,5.49,0,0,0,32.21,29a7.77,7.77,0,0,0,2.59-1.15c.21-.13.43-.23.65-.35a1.7,1.7,0,0,0,.86-.73,3.83,3.83,0,0,1,.6-.94A3.62,3.62,0,0,0,37.74,24a6.59,6.59,0,0,0-.21-3.16,2.54,2.54,0,0,0-.29-.88c-.48-.58-.71-1.22-1.21-1.84a1.2,1.2,0,0,0-1.38-.14c-.2.18-.34.49-.53.68-.43.46-.81,1.52-.63,1.68a4.94,4.94,0,0,1,.66.55,8.19,8.19,0,0,1,.48.72c.13.17.44.28.48.51s.2.41.11.66,0,.65-.13,1a3.2,3.2,0,0,1-.6,1,4.31,4.31,0,0,1-1.05.81,8,8,0,0,1-1.44.77,4.66,4.66,0,0,1-2.26,0,6.5,6.5,0,0,1-1.17-.35,2.48,2.48,0,0,1-.84-.46,2,2,0,0,1-.56-.77A1.69,1.69,0,0,1,27,23.4l0-.07h0v0a2.52,2.52,0,0,0,.07-.72,3.88,3.88,0,0,1,.51-1.34,6,6,0,0,1,.87-1.3,3.89,3.89,0,0,1,2.7-1c.56.1,1,.62,1.34.84a.53.53,0,0,0,.45,0c.2-.1.21,0,.32-.12a2.93,2.93,0,0,0,.53-.61C34.35,18.28,34.81,17,34.33,16.83Z" transform="translate(-0.37)"/><path d="M29.79,4.74c0,.36-.19,1.06-.58,1.11s-1.15-.45-1.91-1S25.78,3.79,25.42,3.5a7.23,7.23,0,0,0-1.57-1.13,4.59,4.59,0,0,0-3.39-.25,4.94,4.94,0,0,0-2.67,3,16.22,16.22,0,0,0-.95,4.36c-.09.71-.1,1.42-.16,2.07s0,1.28-.08,1.85c-.15,4-.18,14.75-.56,18.75-.16,2-.4,5.49-.78,8.81A69.39,69.39,0,0,1,14,48.62a13.45,13.45,0,0,1-.85,2.71A7,7,0,0,1,11.34,54a3.74,3.74,0,0,1-1.78.84,3.77,3.77,0,0,1-1.92-.25,7.92,7.92,0,0,1-2.55-1.83,26.25,26.25,0,0,1-4-5.48,6.14,6.14,0,0,1-.76-3.07c0-1.14.45-.8,1.3-.15a11.52,11.52,0,0,1,3.14,4.47,11.32,11.32,0,0,0,1.85,2.58,7.35,7.35,0,0,0,1.27,1.06,2.21,2.21,0,0,0,1,.36,1.09,1.09,0,0,0,.75-.19,3.12,3.12,0,0,0,.72-.73,9.55,9.55,0,0,0,1.06-2.12,30.32,30.32,0,0,0,1.32-5.3c.44-2.34.65-7,.79-9.45.1-1.43.47-5.73.61-10.62.11-3.7.08-8.2.13-9.29.07-1.42.1-3,.32-4.68a21.36,21.36,0,0,1,1.27-5.41,9.52,9.52,0,0,1,1.19-2.17A5.94,5.94,0,0,1,21.56,0a7.55,7.55,0,0,1,2.12.22,13.65,13.65,0,0,1,5.59,3.25A1.5,1.5,0,0,1,29.79,4.74Z" transform="translate(-0.37)"/></svg>
